<?xml version="1.0" encoding="utf-8"?>
<!-- Generator: Adobe Illustrator 27.0.0, SVG Export Plug-In . SVG Version: 6.00 Build 0)  -->
<svg version="1.1" id="Layer_1" xmlns="http://www.w3.org/2000/svg" xmlns:xlink="http://www.w3.org/1999/xlink" x="0px" y="0px"
	 viewBox="0 0 1920 1080" style="enable-background:new 0 0 1920 1080;" xml:space="preserve">
<style type="text/css">
	.st0{fill:#F2FF00;}
	.st1{fill:none;stroke:#000000;stroke-miterlimit:10;}
</style>
<g id="XMLID_00000103983571028705733730000016534345163160456332_">
	<g>
		<polygon class="st0" points="1818.65,87.9 1811.14,91.68 1810,100 1804.09,94.03 1795.82,95.51 1799.68,88.05 1795.71,80.64 
			1804,82 1809.82,75.94 1811.09,84.24 		"/>
		<polygon class="st0" points="1765.87,838.14 1726.35,847.91 1712,886 1690.5,851.44 1649.84,849.56 1676.07,818.43 
			1665.29,779.18 1703,794.5 1737,772.12 1734.08,812.72 		"/>
		<polygon class="st0" points="1763.37,368.84 1753.91,384.74 1761.64,401.55 1743.6,397.46 1730,410 1728.31,391.58 
			1712.18,382.52 1729.18,375.23 1732.81,357.09 1745,371 		"/>
		<polygon class="st0" points="1609.54,230.4 1581.05,256.01 1586,294 1552.84,274.82 1518.24,291.27 1526.23,253.8 1499.9,225.98 
			1538,222 1556.33,188.36 1571.88,223.37 		"/>
		<polygon class="st0" points="1492,530 1482.49,531.73 1478.52,540.55 1473.93,532.04 1464.32,530.99 1471,524 1469.02,514.53 
			1477.74,518.72 1486.13,513.92 1484.84,523.5 		"/>
		<polygon class="st0" points="1354.79,84.65 1369.1,102.31 1346.37,102.93 1334,122 1326.39,100.58 1304.43,94.7 1322.45,80.84 
			1321.25,58.14 1340,71 1361.22,62.84 		"/>
		<polygon class="st0" points="1325.54,952.9 1311.27,956.31 1306,970 1298.34,957.49 1283.69,956.7 1293.23,945.55 1289.45,931.38 
			1303,937 1315.31,929.03 1314.15,943.65 		"/>
		<polygon class="st0" points="1277.16,323.63 1240.09,373.3 1260,432 1201.3,412.09 1151.63,449.16 1152.42,387.19 1101.81,351.4 
			1161,333 1179.4,273.81 1215.19,324.42 		"/>
		<polygon class="st0" points="938.27,188.37 933.5,197.11 938,206 928.21,204.17 921.15,211.19 919.87,201.32 911,196.77 
			920,192.5 921.58,182.67 928.43,189.9 		"/>
		<polygon class="st0" points="732.2,1009.79 740,1024 723.98,1021.54 712.87,1033.35 710.25,1017.35 695.59,1010.43 710,1003 
			712.05,986.92 723.57,998.33 739.5,995.31 		"/>
		<polygon class="st0" points="592.89,43.76 566.82,58.29 564,88 542.13,67.69 513,74.2 525.56,47.12 510.37,21.43 540,25 
			559.74,2.62 565.5,31.9 		"/>
		<polygon class="st0" points="548.97,365.86 537.72,371.52 536,384 527.14,375.04 514.74,377.27 520.51,366.07 514.57,354.96 
			527,357 535.73,347.91 537.63,360.37 		"/>
		<polygon class="st0" points="425.57,713.45 357.5,748.93 348.14,825.13 293.36,771.35 218,786 252.21,717.28 215,650.13 
			290.93,661.44 343.28,605.29 356,681 		"/>
		<polygon class="st0" points="358.7,225.07 340.07,239.4 341.31,262.86 321.93,249.57 300,258 306.65,235.46 291.86,217.21 
			315.34,216.57 328.13,196.86 336,219 		"/>
		<polygon class="st0" points="205.14,422.32 189.98,447.33 202,474 173.52,467.32 151.88,486.99 149.43,457.84 124.04,443.33 
			151,432 156.95,403.36 176.06,425.51 		"/>
		<polygon class="st0" points="148.77,151.55 158.31,162.7 143.66,163.49 136,176 130.73,162.31 116.46,158.9 127.85,149.65 
			126.69,135.03 139,143 152.55,137.38 		"/>
	</g>
	<g>
		<polygon class="st1" points="136,176 130.73,162.31 116.46,158.9 127.85,149.65 126.69,135.03 139,143 152.55,137.38 
			148.77,151.55 158.31,162.7 143.66,163.49 		"/>
		<polygon class="st1" points="300,258 306.65,235.46 291.86,217.21 315.34,216.57 328.13,196.86 336,219 358.7,225.07 
			340.07,239.4 341.31,262.86 321.93,249.57 		"/>
		<polygon class="st1" points="202,474 173.52,467.32 151.88,486.99 149.43,457.84 124.04,443.33 151,432 156.95,403.36 
			176.06,425.51 205.14,422.32 189.98,447.33 		"/>
		<polygon class="st1" points="564,88 542.13,67.69 513,74.2 525.56,47.12 510.37,21.43 540,25 559.74,2.62 565.5,31.9 
			592.89,43.76 566.82,58.29 		"/>
		<polygon class="st1" points="536,384 527.14,375.04 514.74,377.27 520.51,366.07 514.57,354.96 527,357 535.73,347.91 
			537.63,360.37 548.97,365.86 537.72,371.52 		"/>
		<polygon class="st1" points="218,786 252.21,717.28 215,650.13 290.93,661.44 343.28,605.29 356,681 425.57,713.45 357.5,748.93 
			348.14,825.13 293.36,771.35 		"/>
		<polygon class="st1" points="938,206 928.21,204.17 921.15,211.19 919.87,201.32 911,196.77 920,192.5 921.58,182.67 
			928.43,189.9 938.27,188.37 933.5,197.11 		"/>
		<polygon class="st1" points="1334,122 1326.39,100.58 1304.43,94.7 1322.45,80.84 1321.25,58.14 1340,71 1361.22,62.84 
			1354.79,84.65 1369.1,102.31 1346.37,102.93 		"/>
		<polygon class="st1" points="1260,432 1201.3,412.09 1151.63,449.16 1152.42,387.19 1101.81,351.4 1161,333 1179.4,273.81 
			1215.19,324.42 1277.16,323.63 1240.09,373.3 		"/>
		<polygon class="st1" points="1586,294 1552.84,274.82 1518.24,291.27 1526.23,253.8 1499.9,225.98 1538,222 1556.33,188.36 
			1571.88,223.37 1609.54,230.4 1581.05,256.01 		"/>
		<polygon class="st1" points="1810,100 1804.09,94.03 1795.82,95.51 1799.68,88.05 1795.71,80.64 1804,82 1809.82,75.94 
			1811.09,84.24 1818.65,87.9 1811.14,91.68 		"/>
		<polygon class="st1" points="1730,410 1728.31,391.58 1712.18,382.52 1729.18,375.23 1732.81,357.09 1745,371 1763.37,368.84 
			1753.91,384.74 1761.64,401.55 1743.6,397.46 		"/>
		<polygon class="st1" points="1492,530 1482.49,531.73 1478.52,540.55 1473.93,532.04 1464.32,530.99 1471,524 1469.02,514.53 
			1477.74,518.72 1486.13,513.92 1484.84,523.5 		"/>
		<polygon class="st1" points="1712,886 1690.5,851.44 1649.84,849.56 1676.07,818.43 1665.29,779.18 1703,794.5 1737,772.12 
			1734.08,812.72 1765.87,838.14 1726.35,847.91 		"/>
		<polygon class="st1" points="740,1024 723.98,1021.54 712.87,1033.35 710.25,1017.35 695.59,1010.43 710,1003 712.05,986.92 
			723.57,998.33 739.5,995.31 732.2,1009.79 		"/>
		<polygon class="st1" points="1306,970 1298.34,957.49 1283.69,956.7 1293.23,945.55 1289.45,931.38 1303,937 1315.31,929.03 
			1314.15,943.65 1325.54,952.9 1311.27,956.31 		"/>
	</g>
</g>
</svg>
