<?xml version="1.0" encoding="utf-8"?>
<!-- Generator: Adobe Illustrator 27.0.0, SVG Export Plug-In . SVG Version: 6.00 Build 0)  -->
<svg version="1.1" xmlns="http://www.w3.org/2000/svg" xmlns:xlink="http://www.w3.org/1999/xlink" x="0px" y="0px"
	 viewBox="0 0 1920 1080" style="enable-background:new 0 0 1920 1080;" xml:space="preserve">
<style type="text/css">
	.st0{fill:#F2FF00;}
	.st1{fill:none;stroke:#000000;stroke-miterlimit:10;}
	.st2{fill:#F2FF00;stroke:#000000;stroke-miterlimit:10;}
	.st3{display:none;}
	.st4{display:inline;fill:#F2FF00;stroke:#000000;stroke-miterlimit:10;}
</style>
<g id="stars_1">
	<g id="XMLID_00000103983571028705733730000016534345163160456332_">
		<g>
			<polygon class="st0" points="518.35,100.19 521.97,88.53 529.02,98.5 541.23,98.34 533.93,108.13 537.85,119.69 526.29,115.77 
				516.5,123.08 516.66,110.87 506.69,103.81 			"/>
			<polygon class="st0" points="583.56,139 581.68,139.34 580.9,141.08 580,139.4 578.1,139.2 579.42,137.82 579.03,135.95 
				580.75,136.78 582.4,135.83 582.15,137.72 			"/>
			<polygon class="st0" points="556.52,51.26 559.34,54.74 554.87,54.86 552.43,58.62 550.93,54.4 546.6,53.24 550.15,50.51 
				549.92,46.04 553.61,48.57 557.79,46.97 			"/>
			<polygon class="st0" points="474.47,71.7 473.53,73.42 474.41,75.17 472.49,74.81 471.09,76.19 470.84,74.25 469.1,73.35 
				470.87,72.51 471.18,70.57 472.53,72 			"/>
			<polygon class="st0" points="606.71,79.98 601.1,85.02 602.08,92.51 595.54,88.73 588.73,91.97 590.3,84.59 585.11,79.11 
				592.62,78.32 596.23,71.69 599.29,78.59 			"/>
			<polygon class="st0" points="637.02,107.25 635.16,110.38 636.68,113.69 633.12,112.89 630.44,115.36 630.11,111.73 
				626.93,109.95 630.28,108.51 631,104.94 633.4,107.68 			"/>
			<polygon class="st0" points="647.91,51.91 646.43,52.65 646.21,54.29 645.04,53.11 643.41,53.4 644.17,51.93 643.39,50.47 
				645.02,50.74 646.17,49.55 646.42,51.18 			"/>
			<polygon class="st0" points="600.75,238.35 592.96,240.28 590.14,247.78 585.9,240.97 577.89,240.6 583.06,234.47 580.93,226.74 
				588.36,229.76 595.06,225.35 594.49,233.35 			"/>
			<polygon class="st0" points="514,260.96 511.19,261.63 510.15,264.33 508.64,261.87 505.75,261.71 507.63,259.51 506.89,256.72 
				509.56,257.83 511.98,256.26 511.76,259.14 			"/>
			<polygon class="st0" points="397.11,272.17 398.64,274.97 395.49,274.49 393.3,276.81 392.78,273.66 389.89,272.3 392.73,270.83 
				393.14,267.66 395.41,269.91 398.54,269.32 			"/>
			<polygon class="st0" points="369.66,81.85 364.52,84.72 363.97,90.57 359.66,86.57 353.92,87.85 356.4,82.52 353.4,77.46 
				359.24,78.16 363.13,73.75 364.26,79.52 			"/>
			<polygon class="st0" points="361.01,145.31 358.79,146.43 358.45,148.88 356.71,147.12 354.26,147.56 355.4,145.35 
				354.23,143.16 356.68,143.57 358.4,141.77 358.77,144.23 			"/>
			<polygon class="st0" points="338.27,212.21 324.86,219.2 323.02,234.21 312.23,223.62 297.38,226.51 304.12,212.97 
				296.79,199.74 311.75,201.97 322.06,190.9 324.57,205.82 			"/>
			<polygon class="st0" points="323.52,117.57 319.85,120.4 320.1,125.02 316.28,122.4 311.96,124.06 313.27,119.62 310.36,116.03 
				314.98,115.9 317.5,112.02 319.05,116.38 			"/>
			<polygon class="st0" points="293.27,156.43 290.28,161.36 292.65,166.62 287.04,165.3 282.78,169.17 282.3,163.43 277.29,160.57 
				282.6,158.34 283.78,152.7 287.54,157.06 			"/>
			<polygon class="st0" points="282.17,103.09 284.05,105.29 281.16,105.44 279.65,107.91 278.61,105.21 275.8,104.54 
				278.04,102.72 277.82,99.84 280.24,101.41 282.91,100.3 			"/>
		</g>
		<g>
			<polygon class="st1" points="279.65,107.91 278.61,105.21 275.8,104.54 278.04,102.72 277.82,99.84 280.24,101.41 282.91,100.3 
				282.17,103.09 284.05,105.29 281.16,105.44 			"/>
			<polygon class="st1" points="311.96,124.06 313.27,119.62 310.36,116.03 314.98,115.9 317.5,112.02 319.05,116.38 323.52,117.57 
				319.85,120.4 320.1,125.02 316.28,122.4 			"/>
			<polygon class="st1" points="292.65,166.62 287.04,165.3 282.78,169.17 282.3,163.43 277.29,160.57 282.6,158.34 283.78,152.7 
				287.54,157.06 293.27,156.43 290.28,161.36 			"/>
			<polygon class="st1" points="363.97,90.57 359.66,86.57 353.92,87.85 356.4,82.52 353.4,77.46 359.24,78.16 363.13,73.75 
				364.26,79.52 369.66,81.85 364.52,84.72 			"/>
			<polygon class="st1" points="358.45,148.88 356.71,147.12 354.26,147.56 355.4,145.35 354.23,143.16 356.68,143.57 358.4,141.77 
				358.77,144.23 361.01,145.31 358.79,146.43 			"/>
			<polygon class="st1" points="297.38,226.51 304.12,212.97 296.79,199.74 311.75,201.97 322.06,190.9 324.57,205.82 
				338.27,212.21 324.86,219.2 323.02,234.21 312.23,223.62 			"/>
			<polygon class="st1" points="474.41,75.17 472.49,74.81 471.09,76.19 470.84,74.25 469.1,73.35 470.87,72.51 471.18,70.57 
				472.53,72 474.47,71.7 473.53,73.42 			"/>
			<polygon class="st1" points="552.43,58.62 550.93,54.4 546.6,53.24 550.15,50.51 549.92,46.04 553.61,48.57 557.79,46.97 
				556.52,51.26 559.34,54.74 554.87,54.86 			"/>
			<polygon class="st1" points="537.85,119.69 526.29,115.77 516.5,123.08 516.66,110.87 506.69,103.81 518.35,100.19 521.97,88.53 
				529.02,98.5 541.23,98.34 533.93,108.13 			"/>
			<polygon class="st1" points="602.08,92.51 595.54,88.73 588.73,91.97 590.3,84.59 585.11,79.11 592.62,78.32 596.23,71.69 
				599.29,78.59 606.71,79.98 601.1,85.02 			"/>
			<polygon class="st1" points="646.21,54.29 645.04,53.11 643.41,53.4 644.17,51.93 643.39,50.47 645.02,50.74 646.17,49.55 
				646.42,51.18 647.91,51.91 646.43,52.65 			"/>
			<polygon class="st1" points="630.44,115.36 630.11,111.73 626.93,109.95 630.28,108.51 631,104.94 633.4,107.68 637.02,107.25 
				635.16,110.38 636.68,113.69 633.12,112.89 			"/>
			<polygon class="st1" points="583.56,139 581.68,139.34 580.9,141.08 580,139.4 578.1,139.2 579.42,137.82 579.03,135.95 
				580.75,136.78 582.4,135.83 582.15,137.72 			"/>
			<polygon class="st1" points="590.14,247.78 585.9,240.97 577.89,240.6 583.06,234.47 580.93,226.74 588.36,229.76 595.06,225.35 
				594.49,233.35 600.75,238.35 592.96,240.28 			"/>
			<polygon class="st1" points="398.64,274.97 395.49,274.49 393.3,276.81 392.78,273.66 389.89,272.3 392.73,270.83 393.14,267.66 
				395.41,269.91 398.54,269.32 397.11,272.17 			"/>
			<polygon class="st1" points="510.15,264.33 508.64,261.87 505.75,261.71 507.63,259.51 506.89,256.72 509.56,257.83 
				511.98,256.26 511.76,259.14 514,260.96 511.19,261.63 			"/>
		</g>
	</g>
	<g id="XMLID_00000100347981146177057550000018139557356027864980_">
		<g>
			<polygon class="st0" points="973.97,255.14 971.5,256.39 971.13,259.12 969.19,257.16 966.47,257.65 967.73,255.19 
				966.43,252.76 969.15,253.2 971.07,251.21 971.48,253.94 			"/>
			<polygon class="st0" points="956.62,501.82 943.63,505.04 938.9,517.56 931.83,506.2 918.47,505.58 927.09,495.34 923.55,482.44 
				935.94,487.48 947.12,480.12 946.16,493.47 			"/>
			<polygon class="st0" points="955.8,347.52 952.68,352.75 955.23,358.27 949.29,356.92 944.82,361.05 944.27,354.99 
				938.97,352.02 944.56,349.62 945.75,343.65 949.75,348.23 			"/>
			<polygon class="st0" points="908.38,148.52 896.19,164.85 902.74,184.16 883.43,177.61 867.1,189.8 867.36,169.42 850.72,157.65 
				870.18,151.6 876.23,132.14 888,148.78 			"/>
			<polygon class="st0" points="905.21,302 895.85,310.42 897.47,322.91 886.57,316.6 875.19,322.01 877.82,309.69 869.16,300.54 
				881.69,299.24 887.72,288.18 892.83,299.68 			"/>
			<polygon class="st0" points="866.57,400.51 863.44,401.08 862.14,403.98 860.63,401.18 857.47,400.83 859.66,398.53 
				859.01,395.42 861.88,396.8 864.64,395.22 864.21,398.37 			"/>
			<polygon class="st0" points="821.45,254.08 826.16,259.88 818.69,260.09 814.62,266.36 812.11,259.31 804.89,257.38 
				810.82,252.82 810.43,245.36 816.59,249.59 823.57,246.9 			"/>
			<polygon class="st0" points="811.84,539.55 807.15,540.68 805.41,545.18 802.89,541.06 798.08,540.81 801.21,537.14 
				799.97,532.48 804.42,534.33 808.47,531.71 808.09,536.52 			"/>
			<polygon class="st0" points="684.5,288.18 682.93,291.05 684.41,293.98 681.19,293.37 678.87,295.68 678.45,292.43 
				675.54,290.94 678.49,289.54 679.01,286.3 681.26,288.68 			"/>
			<polygon class="st0" points="616.75,558.26 619.31,562.94 614.04,562.13 610.39,566.01 609.53,560.75 604.71,558.47 
				609.44,556.03 610.12,550.74 613.91,554.49 619.14,553.5 			"/>
			<polygon class="st0" points="570.94,240.63 562.37,245.41 561.44,255.18 554.25,248.5 544.67,250.64 548.8,241.74 543.8,233.29 
				553.55,234.46 560.04,227.1 561.93,236.73 			"/>
			<polygon class="st0" points="556.5,346.53 552.8,348.4 552.23,352.5 549.32,349.56 545.24,350.29 547.14,346.61 545.19,342.95 
				549.27,343.62 552.14,340.64 552.77,344.73 			"/>
			<polygon class="st0" points="540.91,479.24 518.53,490.91 515.46,515.96 497.44,498.28 472.66,503.09 483.91,480.5 
				471.68,458.42 496.64,462.14 513.86,443.68 518.04,468.57 			"/>
			<polygon class="st0" points="493.94,300.25 487.81,304.95 488.22,312.67 481.85,308.3 474.63,311.07 476.82,303.66 
				471.96,297.66 479.68,297.45 483.89,290.97 486.47,298.25 			"/>
			<polygon class="st0" points="424.91,276.07 428.05,279.74 423.23,279.99 420.71,284.11 418.98,279.61 414.29,278.49 
				418.03,275.45 417.65,270.64 421.7,273.26 426.15,271.41 			"/>
			<polygon class="st0" points="397.41,387.46 392.43,395.68 396.38,404.45 387.02,402.26 379.9,408.72 379.1,399.14 370.75,394.37 
				379.61,390.64 381.57,381.23 387.85,388.51 			"/>
		</g>
		<g>
			<polygon class="st1" points="420.71,284.11 418.98,279.61 414.29,278.49 418.03,275.45 417.65,270.64 421.7,273.26 
				426.15,271.41 424.91,276.07 428.05,279.74 423.23,279.99 			"/>
			<polygon class="st1" points="474.63,311.07 476.82,303.66 471.96,297.66 479.68,297.45 483.89,290.97 486.47,298.25 
				493.94,300.25 487.81,304.95 488.22,312.67 481.85,308.3 			"/>
			<polygon class="st1" points="396.38,404.45 387.02,402.26 379.9,408.72 379.1,399.14 370.75,394.37 379.61,390.64 381.57,381.23 
				387.85,388.51 397.41,387.46 392.43,395.68 			"/>
			<polygon class="st1" points="561.44,255.18 554.25,248.5 544.67,250.64 548.8,241.74 543.8,233.29 553.55,234.46 560.04,227.1 
				561.93,236.73 570.94,240.63 562.37,245.41 			"/>
			<polygon class="st1" points="552.23,352.5 549.32,349.56 545.24,350.29 547.14,346.61 545.19,342.95 549.27,343.62 
				552.14,340.64 552.77,344.73 556.5,346.53 552.8,348.4 			"/>
			<polygon class="st1" points="472.66,503.09 483.91,480.5 471.68,458.42 496.64,462.14 513.86,443.68 518.04,468.57 
				540.91,479.24 518.53,490.91 515.46,515.96 497.44,498.28 			"/>
			<polygon class="st1" points="684.41,293.98 681.19,293.37 678.87,295.68 678.45,292.43 675.54,290.94 678.49,289.54 
				679.01,286.3 681.26,288.68 684.5,288.18 682.93,291.05 			"/>
			<polygon class="st1" points="814.62,266.36 812.11,259.31 804.89,257.38 810.82,252.82 810.43,245.36 816.59,249.59 
				823.57,246.9 821.45,254.08 826.16,259.88 818.69,260.09 			"/>
			<polygon class="st1" points="902.74,184.16 883.43,177.61 867.1,189.8 867.36,169.42 850.72,157.65 870.18,151.6 876.23,132.14 
				888,148.78 908.38,148.52 896.19,164.85 			"/>
			<polygon class="st1" points="897.47,322.91 886.57,316.6 875.19,322.01 877.82,309.69 869.16,300.54 881.69,299.24 
				887.72,288.18 892.83,299.68 905.21,302 895.85,310.42 			"/>
			<polygon class="st1" points="971.13,259.12 969.19,257.16 966.47,257.65 967.73,255.19 966.43,252.76 969.15,253.2 
				971.07,251.21 971.48,253.94 973.97,255.14 971.5,256.39 			"/>
			<polygon class="st1" points="944.82,361.05 944.27,354.99 938.97,352.02 944.56,349.62 945.75,343.65 949.75,348.23 
				955.8,347.52 952.68,352.75 955.23,358.27 949.29,356.92 			"/>
			<polygon class="st1" points="866.57,400.51 863.44,401.08 862.14,403.98 860.63,401.18 857.47,400.83 859.66,398.53 
				859.01,395.42 861.88,396.8 864.64,395.22 864.21,398.37 			"/>
			<polygon class="st1" points="938.9,517.56 931.83,506.2 918.47,505.58 927.09,495.34 923.55,482.44 935.94,487.48 947.12,480.12 
				946.16,493.47 956.62,501.82 943.63,505.04 			"/>
			<polygon class="st1" points="619.31,562.94 614.04,562.13 610.39,566.01 609.53,560.75 604.71,558.47 609.44,556.03 
				610.12,550.74 613.91,554.49 619.14,553.5 616.75,558.26 			"/>
			<polygon class="st1" points="805.41,545.18 802.89,541.06 798.08,540.81 801.21,537.14 799.97,532.48 804.42,534.33 
				808.47,531.71 808.09,536.52 811.84,539.55 807.15,540.68 			"/>
		</g>
	</g>
	<polygon class="st2" points="70.52,592.76 66.62,588.36 60.79,589.07 63.77,584 61.28,578.68 67.03,579.95 71.33,575.94 
		71.89,581.79 77.03,584.64 71.64,586.99 	"/>
	<polygon class="st2" points="69.31,522.31 66.79,521.45 64.65,523.05 64.68,520.38 62.51,518.84 65.05,518.05 65.84,515.51 
		67.38,517.68 70.05,517.65 68.45,519.79 	"/>
	<polygon class="st2" points="211.28,645.4 198.47,637.67 184.84,643.84 188.24,629.26 178.16,618.21 193.06,616.93 200.46,603.93 
		206.28,617.71 220.94,620.73 209.62,630.53 	"/>
	<polygon class="st2" points="83.58,786 70.95,792.23 68.93,806.16 59.1,796.08 45.23,798.46 51.78,786 45.23,773.54 59.1,775.92 
		68.93,765.84 70.95,779.77 	"/>
	<polygon class="st2" points="111.01,753.61 106.26,751.64 101.94,754.43 102.35,749.31 98.36,746.06 103.36,744.87 105.21,740.07 
		107.89,744.46 113.03,744.73 109.69,748.64 	"/>
	<polygon class="st2" points="84.19,690.31 81.01,690.43 79.32,693.12 78.22,690.14 75.14,689.36 77.63,687.39 77.43,684.23 
		80.07,685.99 83.01,684.81 82.16,687.87 	"/>
	<polygon class="st2" points="231.9,816.03 225.53,813.67 219.97,817.59 220.24,810.79 214.8,806.72 221.35,804.88 223.55,798.44 
		227.32,804.1 234.11,804.2 229.9,809.54 	"/>
	<polygon class="st2" points="86.81,913.91 81.6,913.59 78.39,917.7 77.08,912.65 72.17,910.86 76.57,908.06 76.76,902.84 
		80.79,906.16 85.8,904.72 83.89,909.58 	"/>
	<polygon class="st2" points="331.89,743.6 322.12,743.96 316.88,752.22 313.52,743.04 304.05,740.6 311.74,734.57 311.13,724.81 
		319.25,730.26 328.34,726.66 325.66,736.07 	"/>
	<polygon class="st2" points="276.81,72.2 271.15,71.14 267.06,75.21 266.32,69.49 261.19,66.86 266.39,64.39 267.31,58.7 
		271.27,62.89 276.97,62 274.21,67.06 	"/>
	<polygon class="st2" points="678,393 669.71,388.21 661.06,392.32 663.06,382.95 656.47,375.99 666,375 670.58,366.59 
		674.47,375.34 683.88,377.1 676.76,383.5 	"/>
	<polygon class="st2" points="714,97 712.47,105.9 718.93,112.21 709.99,113.5 705.99,121.6 702,113.5 693.06,112.2 699.53,105.9 
		698.01,96.99 706,101.2 	"/>
	<polygon class="st2" points="117,303 106.04,297.3 95.13,303.1 97.17,290.91 88.28,282.33 100.5,280.5 105.92,269.4 111.43,280.45 
		123.67,282.17 114.86,290.83 	"/>
	<polygon class="st2" points="220,379 214.67,375.71 208.94,378.23 210.42,372.14 206.25,367.47 212.5,367 215.66,361.59 
		218.03,367.39 224.15,368.72 219.37,372.77 	"/>
	<polygon class="st2" points="162,160 158.72,162.36 158.81,166.4 155.55,164.01 151.73,165.34 153,161.5 150.56,158.28 
		154.6,158.3 156.9,154.98 158.13,158.83 	"/>
	<polygon class="st2" points="135,61 125.51,58.28 117.89,64.55 117.55,54.69 109.22,49.38 118.5,46 120.98,36.44 127.06,44.22 
		136.91,43.63 131.39,51.81 	"/>
	<polygon class="st2" points="280,502 276.74,501.39 274.38,503.73 273.96,500.44 271,498.92 274,497.5 274.53,494.22 
		276.81,496.63 280.09,496.12 278.5,499.04 	"/>
</g>
<g id="Layer_3" class="st3">
	<polygon class="st4" points="203.12,133.37 197.16,132.86 193.37,137.71 191.99,131.62 186.42,129.35 191.53,126.09 191.87,119.84 
		196.4,123.93 202.19,122.33 199.88,128.11 	"/>
	<polygon class="st4" points="317.73,80.57 319.61,69.39 311.88,61.43 322.62,59.85 327.46,49.69 332.22,59.9 342.95,61.58 
		335.15,69.47 336.94,80.66 327.36,75.34 	"/>
	<polygon class="st4" points="62.24,244.41 59.7,241.28 55.79,241.69 57.85,238.19 56.27,234.43 60.09,235.4 63.02,232.67 
		63.31,236.77 66.71,238.84 63.07,240.4 	"/>
	<polygon class="st4" points="130.52,120.26 128.56,120.47 127.61,122.27 126.82,120.39 124.89,120 126.36,118.63 126.11,116.59 
		127.81,117.63 129.59,116.75 129.17,118.76 	"/>
	<polygon class="st4" points="185.34,251.47 172.32,248.32 162.47,257.76 161.31,243.83 149.69,236.93 161.99,231.48 164.66,217.78 
		173.42,228.33 186.7,226.76 179.81,238.74 	"/>
	<polygon class="st4" points="324.64,200.58 324.28,195.83 320.34,193.44 324.55,191.62 325.5,186.97 328.45,190.59 332.98,190.1 
		330.6,194.16 332.45,198.51 328.02,197.4 	"/>
	<polygon class="st4" points="268.66,311.53 266.67,305.78 261.01,304.24 265.62,300.48 265.28,294.37 270.12,297.8 275.56,295.57 
		273.95,301.45 277.66,306.17 271.81,306.38 	"/>
	<polygon class="st4" points="125.04,387.58 124.33,382.17 119.67,379.72 124.36,377.35 125.15,371.95 128.76,375.89 133.91,375.01 
		131.45,379.82 133.84,384.66 128.71,383.7 	"/>
	<polygon class="st4" points="211.38,434.03 212.65,429.2 209.56,425.37 214.35,425.14 216.88,420.88 218.57,425.57 223.21,426.78 
		219.47,429.9 219.82,434.9 215.82,432.15 	"/>
	<polygon class="st4" points="66.16,469.9 62.67,470.57 61.21,473.96 59.52,470.68 55.99,470.28 58.45,467.59 57.72,463.95 
		60.92,465.56 64.01,463.72 63.53,467.4 	"/>
	<polygon class="st4" points="116.08,542.81 114.48,538.34 110.05,537.18 113.62,534.21 113.3,529.44 117.1,532.08 121.33,530.28 
		120.12,534.89 123.05,538.54 118.49,538.76 	"/>
	<polygon class="st4" points="179.36,515.88 171.92,517.3 168.82,524.52 165.23,517.55 157.71,516.7 162.93,510.97 161.39,503.22 
		168.21,506.65 174.77,502.72 173.76,510.57 	"/>
	<polygon class="st4" points="480.46,229.55 478.46,219.39 469.32,215.35 477.94,210.22 478.79,199.87 486.12,206.87 495.78,204.51 
		491.69,213.97 496.81,222.85 486.95,221.71 	"/>
	<polygon class="st4" points="498.41,170.64 495.9,171 494.77,173.37 493.66,170.98 491.16,170.58 492.98,168.74 492.58,166.13 
		494.81,167.38 497.06,166.16 496.61,168.77 	"/>
	<polygon class="st4" points="407.9,314.15 393.89,301.8 376.22,306.88 383.12,289.12 373.04,273.11 391.31,274.48 402.75,259.51 
		407.15,278.12 424.3,284.87 408.74,295 	"/>
	<polygon class="st4" points="358.47,397.17 356.97,396.83 355.85,397.93 355.7,396.33 354.36,395.55 355.77,394.91 356.06,393.34 
		357.08,394.54 358.6,394.34 357.82,395.72 	"/>
	<polygon class="st4" points="306.67,471.45 298.97,469.13 292.78,474.46 292.5,466.08 285.75,461.57 293.28,458.7 295.29,450.59 
		300.22,457.19 308.22,456.69 303.74,463.64 	"/>
	<polygon class="st4" points="453.52,97.25 449.44,98.02 447.74,101.98 445.77,98.16 441.65,97.69 444.52,94.55 443.67,90.31 
		447.41,92.19 451,90.03 450.45,94.33 	"/>
	<polygon class="st4" points="514.73,119.81 513.59,119.8 512.93,120.78 512.59,119.65 511.49,119.3 512.42,118.6 512.4,117.41 
		513.32,118.12 514.4,117.72 514.04,118.86 	"/>
	<polygon class="st4" points="202.79,658.45 194.33,659.94 190.71,668.07 186.74,660.12 178.23,659.03 184.23,652.62 182.59,643.81 
		190.27,647.81 197.77,643.45 196.51,652.33 	"/>
	<polygon class="st4" points="770.06,84.25 767.55,85.55 767.14,88.45 765.19,86.35 762.43,86.84 763.73,84.25 762.43,81.66 
		765.19,82.15 767.14,80.05 767.55,82.95 	"/>
	<polygon class="st4" points="659.49,136.13 652.2,132.43 645.17,136.62 646.27,128.22 640.29,122.51 648.26,121.02 651.61,113.3 
		655.42,120.78 663.47,121.72 657.86,127.83 	"/>
	<polygon class="st4" points="569.79,63.56 566.83,65.79 566.91,69.59 563.97,67.34 560.53,68.59 561.68,64.98 559.48,61.94 
		563.11,61.96 565.19,58.83 566.3,62.46 	"/>
	<polygon class="st4" points="616.63,242.92 603.4,236.26 590.66,243.89 592.62,228.67 581.75,218.35 596.19,215.6 602.22,201.59 
		609.18,215.11 623.77,216.78 613.63,227.88 	"/>
	<polygon class="st4" points="482.52,424.67 479.37,427.6 479.88,431.98 476.24,429.74 472.42,431.6 473.33,427.29 470.46,424.07 
		474.66,423.64 476.7,419.78 478.38,423.83 	"/>
	<polygon class="st4" points="316.25,578.21 315.12,573.53 310.8,571.85 314.7,569.29 314.9,564.47 318.44,567.56 322.88,566.25 
		321.16,570.73 323.72,574.75 319.12,574.43 	"/>
	<polygon class="st4" points="457.65,601.61 449.82,601.57 445.35,608.3 442.96,600.49 435.47,598.12 441.83,593.34 441.67,585.14 
		447.98,589.99 455.38,587.3 452.92,595.08 	"/>
	<polygon class="st4" points="95.03,796.77 89.55,794.82 84.91,798.44 84.99,792.39 80.26,788.89 85.79,787.1 87.5,781.31 
		90.85,786.26 96.63,786.18 93.17,791.03 	"/>
</g>
<g id="stars_2" class="st3">
	<polygon class="st4" points="217,127 209.28,126.37 204.38,132.36 202.6,124.83 195.38,122.02 202,118 202.44,110.27 
		208.31,115.32 215.8,113.34 212.81,120.49 	"/>
	<polygon class="st4" points="341,83 345.28,58.67 327.67,41.35 352.13,37.9 363.16,15.8 374,38 398.43,41.66 380.67,58.83 
		384.73,83.19 362.92,71.6 	"/>
	<polygon class="st4" points="51,261 43.92,252.65 33.02,253.75 38.77,244.43 34.36,234.41 45,237 53.17,229.7 53.99,240.63 
		63.45,246.14 53.32,250.3 	"/>
	<polygon class="st4" points="135,113 129.35,113.56 126.62,118.54 124.34,113.34 118.76,112.28 123,108.5 122.29,102.87 
		127.19,105.73 132.33,103.32 131.12,108.86 	"/>
	<polygon class="st4" points="199,263 180.61,258.75 166.68,271.49 165.04,252.68 148.62,243.37 166,236 169.78,217.51 
		182.16,231.76 200.92,229.64 191.19,245.82 	"/>
	<polygon class="st4" points="359,205 358.44,197.87 352.25,194.29 358.86,191.55 360.36,184.56 365,190 372.11,189.26 
		368.37,195.36 371.27,201.89 364.32,200.22 	"/>
	<polygon class="st4" points="293,335 288.9,323.69 277.26,320.66 286.75,313.27 286.04,301.26 296,308 307.2,303.61 303.87,315.17 
		311.5,324.46 299.48,324.87 	"/>
	<polygon class="st4" points="123,417 121.86,408.68 114.35,404.9 121.91,401.24 123.18,392.94 129,399 137.29,397.64 
		133.32,405.05 137.18,412.51 128.91,411.03 	"/>
	<polygon class="st4" points="215,479 219.24,463.58 208.94,451.35 224.91,450.61 233.36,437.03 239,452 254.52,455.84 
		242.03,465.83 243.17,481.78 229.82,472.98 	"/>
	<polygon class="st4" points="55,507 50.24,507.87 48.26,512.28 45.97,508.02 41.16,507.5 44.5,504 43.51,499.27 47.87,501.36 
		52.07,498.96 51.42,503.75 	"/>
	<polygon class="st4" points="113,591 110.66,584.75 104.18,583.14 109.4,578.98 108.93,572.32 114.5,576 120.69,573.5 
		118.91,579.93 123.2,585.04 116.53,585.34 	"/>
	<polygon class="st4" points="189,559 179.49,560.73 175.52,569.55 170.93,561.04 161.32,559.99 168,553 166.02,543.53 
		174.74,547.72 183.13,542.92 181.84,552.5 	"/>
	<polygon class="st4" points="543,241 539.81,225.54 525.27,219.4 538.99,211.59 540.34,195.87 552,206.5 567.37,202.92 
		560.86,217.3 569.02,230.81 553.33,229.07 	"/>
	<polygon class="st4" points="567,169 562.84,169.57 560.95,173.32 559.12,169.54 554.97,168.91 558,166 557.32,161.86 
		561.02,163.84 564.76,161.91 564.01,166.05 	"/>
	<polygon class="st4" points="459,333 441.26,318.06 418.89,324.2 427.62,302.71 414.86,283.34 438,285 452.48,266.88 458.05,289.4 
		479.76,297.57 460.07,309.83 	"/>
	<polygon class="st4" points="403,427 398.85,426.09 395.74,428.99 395.33,424.76 391.6,422.7 395.5,421 396.31,416.83 399.13,420 
		403.35,419.48 401.2,423.15 	"/>
	<polygon class="st4" points="339,509 329.51,506.28 321.89,512.55 321.55,502.69 313.22,497.38 322.5,494 324.98,484.44 
		331.06,492.22 340.91,491.63 335.39,499.81 	"/>
	<polygon class="st4" points="519,87 509.49,88.73 505.52,97.55 500.93,89.04 491.32,87.99 498,81 496.02,71.53 504.74,75.72 
		513.13,70.92 511.84,80.5 	"/>
	<polygon class="st4" points="589,113 584.55,112.98 582,116.63 580.65,112.39 576.38,111.1 580,108.5 579.91,104.05 583.5,106.68 
		587.71,105.22 586.31,109.45 	"/>
	<polygon class="st4" points="221,721 207.33,723.3 201.47,735.88 195.06,723.58 181.29,721.9 191,712 188.35,698.39 200.76,704.56 
		212.89,697.83 210.85,711.55 	"/>
	<polygon class="st4" points="891,71 885.05,73.94 884.09,80.51 879.45,75.76 872.91,76.88 876,71 872.91,65.12 879.45,66.24 
		884.09,61.49 885.05,68.06 	"/>
	<polygon class="st4" points="761,137 747.37,130.4 734.21,137.88 736.28,122.88 725.09,112.67 740,110 746.25,96.21 753.4,109.56 
		768.45,111.25 757.95,122.17 	"/>
	<polygon class="st4" points="655,47 648.44,51.72 648.61,59.79 642.1,55.02 634.47,57.67 637,50 632.12,43.56 640.19,43.6 
		644.81,36.97 647.27,44.66 	"/>
	<polygon class="st4" points="707,253 689.52,244.59 672.69,254.23 675.28,235.01 660.92,221.97 680,218.5 687.96,200.81 
		697.16,217.89 716.44,219.99 703.04,234.01 	"/>
	<polygon class="st4" points="561,453 549.66,463.04 551.5,478.07 538.45,470.39 524.73,476.79 528,462 517.67,450.92 
		532.75,449.47 540.09,436.22 546.14,450.11 	"/>
	<polygon class="st4" points="349,635 346.67,625.78 337.76,622.47 345.81,617.41 346.2,607.91 353.5,614 362.66,611.44 
		359.12,620.26 364.39,628.18 354.9,627.54 	"/>
	<polygon class="st4" points="525,659 510.15,658.92 501.67,671.11 497.15,656.97 482.94,652.67 495,644 494.7,629.15 
		506.67,637.94 520.69,633.07 516.03,647.17 	"/>
	<polygon class="st4" points="89,877 81.88,874.59 75.86,879.08 75.96,871.57 69.83,867.23 77,865 79.23,857.83 83.57,863.96 
		91.08,863.86 86.59,869.88 	"/>
</g>
</svg>
